<?xml version="1.0" encoding="utf-8"?>
<!-- Generator: Adobe Illustrator 19.0.0, SVG Export Plug-In . SVG Version: 6.00 Build 0)  -->
<svg version="1.1" id="Calque_1" xmlns="http://www.w3.org/2000/svg" xmlns:xlink="http://www.w3.org/1999/xlink" x="0px" y="0px"
	 viewBox="5446 1.6 5048.1 592.1" style="enable-background:new 5446 1.6 5048.1 592.1;" xml:space="preserve">
<style type="text/css">
	.st0{fill:#008BCD;}
	.st1{fill:#051D49;}
	.st2{fill:#00A4E3;}
</style>
<path class="st0" d="M5933.2,379.6L5933.2,379.6L5933.2,379.6z"/>
<path class="st0" d="M5878.4,294.2L5878.4,294.2L5878.4,294.2z"/>
<path class="st0" d="M5823.9,208.9L5823.9,208.9L5823.9,208.9z"/>
<path class="st1" d="M5769.3,123.5L5769.3,123.5L5769.3,123.5z"/>
<path class="st1" d="M5714.4,37.6L5714.4,37.6L5714.4,37.6z"/>
<g>
	<path class="st0" d="M5719.8,1.6L5719.8,1.6L5719.8,1.6z"/>
	<polygon class="st1" points="6166.7,558.6 5509.4,503.5 5474.2,558.6 	"/>
	<polygon class="st1" points="6111.8,473.2 5560.4,423.8 5528.8,473.2 	"/>
	<polygon class="st2" points="6057.4,387.8 5611.4,344.1 5583.4,387.9 	"/>
	<polygon class="st1" points="6002.6,302.5 5662.4,264.4 5638,302.5 	"/>
	<polygon class="st1" points="5948,217.2 5713.4,184.8 5692.6,217.2 	"/>
	<polygon class="st1" points="5893.4,131.8 5764.3,105.1 5747.2,131.8 	"/>
	<polygon class="st1" points="5838.5,45.9 5814.9,26 5801.8,46.5 	"/>
</g>
<path class="st2" d="M7367.2,105.7l-336.4,0.1c-50.4,10.1-77.5,58-80.5,142.4l-0.2,5.5h71.7l0.2-5c2.3-47.9,15.5-71.2,40.3-71.2
	h274.2c26.7,0,40.3,28.9,40.3,85.9v223.3h-314.5c-24.8,0-38-23.3-40.3-71.2l-0.6-3.6v-44h311.3v-71.8h-382.5v120.4
	c3,84,30.1,131.7,81.5,141.9h416.9V263.3C7448.6,169.3,7421.6,116.3,7367.2,105.7z"/>
<path class="st1" d="M9261.3,105.7l-383.9,0.1c-53.4,10.5-80.5,63.5-80.5,157.6v137.4c0,94.1,27.1,147.1,81.5,157.7h383.4l0.5-0.1
	c53.4-10.5,80.5-63.5,80.5-157.6V263.4C9342.8,169.3,9315.7,116.3,9261.3,105.7z M9271.6,263.4v137.4c0,57-13.8,85.9-40.9,85.9
	h-321.6c-26.8,0-40.3-28.9-40.3-85.9V263.4c0-57,13.6-85.9,40.3-85.9h321.6C9257.9,177.5,9271.6,206.4,9271.6,263.4z"/>
<path class="st1" d="M9824.9,367.9c11.3-1.4,22-5.5,32-12.4c9.9-6.8,18.6-16.2,25.8-27.8c7.1-11.4,12.8-24.9,16.9-40.1
	c4-15.1,6.1-31.9,6.1-49.8c0-82.3-27.2-126.8-81.5-132.1h-416.9v452.8h71.8v-381h330.1c8.1,0,32.8,0,32.8,60.3
	c0,58.4-24.7,58.4-32.8,58.4h-288.9V368h121l178,190.5h93.1L9735.6,368L9824.9,367.9z"/>
<polygon class="st1" points="10462.4,105.7 10369.4,105.7 10191.4,296.2 10029.1,296.2 10029.1,105.7 9957.3,105.7 9957.3,558.5 
	10029.1,558.5 10029.1,368 10191.4,368 10367.9,556.8 10369.4,558.5 10462.4,558.5 10254.6,332.1 "/>
<g>
	<polygon class="st2" points="6406.1,177.5 6406.1,105.7 5947.1,105.7 5992.4,177.5 6138.8,177.5 6138.8,409.5 6210.6,523.2 
		6210.6,177.5 	"/>
</g>
<path class="st2" d="M6559.2,177.5h138.9h110.6h76.2v-71.8h-186.8v0.1l-169.5-0.1c-54.4,10.6-81.5,63.6-81.5,157.7v32.8v262.3h191.4
	h246.4v-71.8h-246.4h-119.6V368h335.4v-71.8h-156.2h-179.2v-32.8C6518.9,206.4,6532.4,177.5,6559.2,177.5z"/>
<path class="st2" d="M8068.1,105.7h-171.7c-36.9,0-58.7,21.8-58.7,21.8c-12.3-10.8-30-21.8-47.5-21.8h-107.4h-65h-14.3
	c-54.3,0-90.3,48.3-90.3,112.1V240v32.2v286.3h72V214.9c0.9-25.4,13.7-37.4,40.1-37.4h57.5h76.8c27.5,0,40.3,12.8,40.3,40.3v340.7
	h71.8V217.8c0-9.7,1.1-17.3,3.4-22.7c2.1-5,5.1-8.7,9.1-11.3c4.3-2.7,10-4.4,16.8-5.2c7.4-0.8,16.6-1.2,27.2-1.2h118
	c27.5,0,40.3,12.8,40.3,40.3v54.4h71.8v-54.4C8158.4,154,8122.4,105.7,8068.1,105.7z"/>
<path class="st1" d="M8176.9,558.5h171.7c36.9,0,58.7-21.8,58.7-21.8c12.3,10.8,30,21.8,47.5,21.8h107.4h65h14.3
	c54.3,0,90.3-48.3,90.3-112.1v-22.2V392V105.7h-72v343.6c-0.9,25.4-13.7,37.4-40.1,37.4h-57.5h-76.8c-27.5,0-40.3-12.8-40.3-40.3
	V105.7h-71.8v340.7c0,9.7-1.1,17.3-3.4,22.7c-2.1,5-5.1,8.7-9.1,11.3c-4.3,2.7-10,4.4-16.8,5.2c-7.4,0.8-16.6,1.2-27.2,1.2h-118
	c-27.5,0-40.3-12.8-40.3-40.3V318.6h-71.8v127.9C8086.6,510.2,8122.6,558.5,8176.9,558.5z"/>
</svg>
